<svg width="377" height="194" xmlns="http://www.w3.org/2000/svg" xmlns:xlink="http://www.w3.org/1999/xlink" xml:space="preserve" overflow="hidden"><g transform="translate(-648 -400)"><path d="M648.157 466.719 648.157 448.417C648.157 447.923 648.203 447.439 648.305 446.956 648.399 446.472 648.539 446.004 648.726 445.552 648.918 445.1 649.147 444.668 649.423 444.257 649.694 443.847 650.005 443.472 650.353 443.124 650.701 442.775 651.076 442.463 651.487 442.193 651.892 441.917 652.324 441.689 652.781 441.502 653.234 441.309 653.702 441.169 654.185 441.075 654.669 440.976 655.152 440.93 655.646 440.93L688.59 440.93C689.078 440.93 689.567 440.976 690.051 441.075 690.534 441.169 691.002 441.309 691.454 441.502 691.907 441.689 692.338 441.917 692.749 442.193 693.16 442.463 693.534 442.775 693.883 443.124 694.23 443.472 694.543 443.847 694.813 444.257 695.089 444.668 695.318 445.1 695.505 445.552 695.697 446.004 695.837 446.472 695.931 446.956 696.029 447.439 696.078 447.923 696.078 448.417L696.078 466.719C696.078 467.213 696.033 467.696 695.931 468.18 695.837 468.663 695.697 469.131 695.505 469.584 695.316 470.036 695.089 470.468 694.813 470.878 694.542 471.289 694.231 471.663 693.883 472.012 693.535 472.36 693.16 472.672 692.749 472.942 692.338 473.218 691.907 473.447 691.454 473.634 691.002 473.826 690.534 473.967 690.051 474.06 689.567 474.159 689.078 474.206 688.59 474.206L655.646 474.206C655.152 474.206 654.669 474.159 654.185 474.06 653.702 473.967 653.234 473.826 652.781 473.634 652.324 473.447 651.892 473.218 651.487 472.942 651.076 472.672 650.702 472.36 650.353 472.012 650.006 471.663 649.693 471.289 649.423 470.878 649.147 470.468 648.918 470.036 648.726 469.584 648.537 469.131 648.397 468.663 648.305 468.18 648.207 467.696 648.157 467.213 648.157 466.719Z" fill="#FF0F7B"/><path d="M702.73 466.719 702.73 448.417C702.73 447.923 702.776 447.439 702.878 446.956 702.972 446.472 703.111 446.004 703.304 445.552 703.493 445.1 703.72 444.668 703.995 444.257 704.267 443.847 704.578 443.472 704.926 443.124 705.273 442.775 705.649 442.463 706.06 442.193 706.465 441.917 706.897 441.689 707.354 441.502 707.807 441.309 708.274 441.169 708.758 441.075 709.242 440.976 709.725 440.93 710.219 440.93L743.162 440.93C743.651 440.93 744.14 440.976 744.624 441.075 745.107 441.169 745.575 441.309 746.027 441.502 746.48 441.689 746.911 441.917 747.322 442.193 747.733 442.463 748.107 442.775 748.456 443.124 748.803 443.472 749.116 443.847 749.386 444.257 749.662 444.668 749.89 445.1 750.078 445.552 750.266 446.004 750.41 446.472 750.504 446.956 750.602 447.439 750.651 447.923 750.651 448.417L750.651 466.719C750.651 467.213 750.606 467.696 750.504 468.18 750.41 468.663 750.266 469.131 750.078 469.584 749.889 470.036 749.662 470.468 749.386 470.878 749.115 471.289 748.804 471.663 748.456 472.012 748.108 472.36 747.733 472.672 747.322 472.942 746.911 473.218 746.48 473.447 746.027 473.634 745.575 473.826 745.107 473.967 744.624 474.06 744.14 474.159 743.651 474.206 743.162 474.206L710.219 474.206C709.725 474.206 709.242 474.159 708.758 474.06 708.274 473.967 707.807 473.826 707.354 473.634 706.897 473.447 706.465 473.218 706.06 472.942 705.649 472.672 705.275 472.36 704.926 472.012 704.579 471.663 704.266 471.289 703.995 470.878 703.72 470.468 703.491 470.036 703.304 469.584 703.111 469.131 702.972 468.663 702.878 468.18 702.779 467.696 702.73 467.213 702.73 466.719Z" fill="#FD266D"/><path d="M757.303 466.719 757.303 448.417C757.303 447.923 757.349 447.439 757.45 446.956 757.545 446.472 757.684 446.004 757.877 445.552 758.065 445.1 758.293 444.668 758.568 444.257 758.84 443.847 759.151 443.472 759.499 443.124 759.846 442.775 760.222 442.463 760.633 442.193 761.038 441.917 761.469 441.689 761.927 441.502 762.38 441.309 762.847 441.169 763.331 441.075 763.814 440.976 764.298 440.93 764.792 440.93L797.735 440.93C798.224 440.93 798.713 440.976 799.196 441.075 799.68 441.169 800.148 441.309 800.6 441.502 801.052 441.689 801.484 441.917 801.895 442.193 802.305 442.463 802.68 442.775 803.028 443.124 803.375 443.472 803.689 443.847 803.959 444.257 804.235 444.668 804.463 445.1 804.65 445.552 804.839 446.004 804.982 446.472 805.077 446.956 805.175 447.439 805.224 447.923 805.224 448.417L805.224 466.719C805.224 467.213 805.179 467.696 805.077 468.18 804.982 468.663 804.839 469.131 804.65 469.584 804.462 470.036 804.235 470.468 803.959 470.878 803.688 471.289 803.377 471.663 803.028 472.012 802.681 472.36 802.305 472.672 801.895 472.942 801.484 473.218 801.052 473.447 800.6 473.634 800.148 473.826 799.68 473.967 799.196 474.06 798.713 474.159 798.224 474.206 797.735 474.206L764.792 474.206C764.298 474.206 763.814 474.159 763.331 474.06 762.847 473.967 762.38 473.826 761.927 473.634 761.469 473.447 761.038 473.218 760.633 472.942 760.222 472.672 759.847 472.36 759.499 472.012 759.152 471.663 758.839 471.289 758.568 470.878 758.293 470.468 758.064 470.036 757.877 469.584 757.684 469.131 757.545 468.663 757.45 468.18 757.352 467.696 757.303 467.213 757.303 466.719Z" fill="#FC3D5F"/><path d="M811.876 466.719 811.876 448.417C811.876 447.923 811.921 447.439 812.023 446.956 812.118 446.472 812.257 446.004 812.444 445.552 812.637 445.1 812.865 444.668 813.141 444.257 813.413 443.847 813.723 443.472 814.072 443.124 814.419 442.775 814.795 442.463 815.205 442.193 815.616 441.917 816.048 441.689 816.5 441.502 816.952 441.309 817.42 441.169 817.904 441.075 818.387 440.976 818.871 440.93 819.365 440.93L853.639 440.93C854.133 440.93 854.617 440.976 855.1 441.075 855.584 441.169 856.052 441.309 856.504 441.502 856.956 441.689 857.388 441.917 857.799 442.193 858.21 442.463 858.584 442.775 858.932 443.124 859.28 443.472 859.593 443.847 859.863 444.257 860.138 444.668 860.367 445.1 860.554 445.552 860.743 446.004 860.886 446.472 860.981 446.956 861.079 447.439 861.128 447.923 861.128 448.417L861.128 466.719C861.128 467.213 861.083 467.696 860.981 468.18 860.886 468.663 860.743 469.131 860.554 469.584 860.366 470.036 860.138 470.468 859.863 470.878 859.591 471.289 859.281 471.663 858.932 472.012 858.585 472.36 858.21 472.672 857.799 472.942 857.388 473.218 856.956 473.447 856.504 473.634 856.052 473.826 855.584 473.967 855.1 474.06 854.617 474.159 854.133 474.206 853.639 474.206L819.365 474.206C818.871 474.206 818.387 474.159 817.904 474.06 817.42 473.967 816.952 473.826 816.5 473.634 816.048 473.447 815.616 473.218 815.205 472.942 814.795 472.672 814.42 472.36 814.072 472.012 813.725 471.663 813.411 471.289 813.141 470.878 812.866 470.468 812.637 470.036 812.444 469.584 812.256 469.131 812.116 468.663 812.023 468.18 811.925 467.696 811.876 467.213 811.876 466.719Z" fill="#FB5552"/><path d="M867.78 466.719 867.78 448.417C867.78 447.923 867.826 447.439 867.927 446.956 868.022 446.472 868.161 446.004 868.354 445.552 868.542 445.1 868.769 444.668 869.045 444.257 869.317 443.847 869.628 443.472 869.976 443.124 870.323 442.775 870.698 442.463 871.109 442.193 871.52 441.917 871.951 441.689 872.404 441.502 872.856 441.309 873.324 441.169 873.808 441.075 874.291 440.976 874.775 440.93 875.269 440.93L908.212 440.93C908.706 440.93 909.19 440.976 909.673 441.075 910.157 441.169 910.625 441.309 911.077 441.502 911.529 441.689 911.961 441.917 912.372 442.193 912.782 442.463 913.157 442.775 913.505 443.124 913.852 443.472 914.166 443.847 914.436 444.257 914.711 444.668 914.94 445.1 915.127 445.552 915.316 446.004 915.459 446.472 915.554 446.956 915.652 447.439 915.701 447.923 915.701 448.417L915.701 466.719C915.701 467.213 915.656 467.696 915.554 468.18 915.459 468.663 915.316 469.131 915.127 469.584 914.939 470.036 914.711 470.468 914.436 470.878 914.164 471.289 913.854 471.663 913.505 472.012 913.158 472.36 912.782 472.672 912.372 472.942 911.961 473.218 911.529 473.447 911.077 473.634 910.625 473.826 910.157 473.967 909.673 474.06 909.19 474.159 908.706 474.206 908.212 474.206L875.269 474.206C874.775 474.206 874.291 474.159 873.808 474.06 873.324 473.967 872.856 473.826 872.404 473.634 871.951 473.447 871.52 473.218 871.109 472.942 870.698 472.672 870.324 472.36 869.976 472.012 869.629 471.663 869.315 471.289 869.045 470.878 868.769 470.468 868.541 470.036 868.354 469.584 868.161 469.131 868.022 468.663 867.927 468.18 867.829 467.696 867.78 467.213 867.78 466.719Z" fill="#FA6C44"/><path d="M922.353 466.719 922.353 448.417C922.353 447.923 922.398 447.439 922.5 446.956 922.595 446.472 922.734 446.004 922.927 445.552 923.115 445.1 923.343 444.668 923.618 444.257 923.89 443.847 924.201 443.472 924.549 443.124 924.896 442.775 925.272 442.463 925.682 442.193 926.093 441.917 926.52 441.689 926.977 441.502 927.429 441.309 927.898 441.169 928.381 441.075 928.865 440.976 929.348 440.93 929.842 440.93L962.785 440.93C963.279 440.93 963.763 440.976 964.246 441.075 964.73 441.169 965.198 441.309 965.65 441.502 966.103 441.689 966.534 441.917 966.945 442.193 967.356 442.463 967.73 442.775 968.078 443.124 968.425 443.472 968.739 443.847 969.009 444.257 969.284 444.668 969.513 445.1 969.701 445.552 969.889 446.004 970.033 446.472 970.127 446.956 970.225 447.439 970.274 447.923 970.274 448.417L970.274 466.719C970.274 467.213 970.229 467.696 970.127 468.18 970.033 468.663 969.889 469.131 969.701 469.584 969.512 470.036 969.284 470.468 969.009 470.878 968.737 471.289 968.427 471.663 968.078 472.012 967.731 472.36 967.356 472.672 966.945 472.942 966.534 473.218 966.103 473.447 965.65 473.634 965.198 473.826 964.73 473.967 964.246 474.06 963.763 474.159 963.279 474.206 962.785 474.206L929.842 474.206C929.348 474.206 928.865 474.159 928.381 474.06 927.898 473.967 927.429 473.826 926.977 473.634 926.525 473.447 926.093 473.218 925.682 472.942 925.272 472.672 924.897 472.36 924.549 472.012 924.202 471.663 923.889 471.289 923.618 470.878 923.343 470.468 923.114 470.036 922.927 469.584 922.734 469.131 922.595 468.663 922.5 468.18 922.402 467.696 922.353 467.213 922.353 466.719Z" fill="#F98336"/><path d="M976.926 466.719 976.926 448.417C976.926 447.923 976.971 447.439 977.073 446.956 977.167 446.472 977.307 446.004 977.499 445.552 977.688 445.1 977.915 444.668 978.191 444.257 978.462 443.847 978.773 443.472 979.122 443.124 979.469 442.775 979.844 442.463 980.255 442.193 980.666 441.917 981.092 441.689 981.549 441.502 982.002 441.309 982.47 441.169 982.953 441.075 983.437 440.976 983.92 440.93 984.414 440.93L1017.36 440.93C1017.85 440.93 1018.34 440.976 1018.82 441.075 1019.3 441.169 1019.77 441.309 1020.22 441.502 1020.68 441.689 1021.11 441.917 1021.52 442.193 1021.93 442.463 1022.3 442.775 1022.65 443.124 1023 443.472 1023.31 443.847 1023.58 444.257 1023.86 444.668 1024.09 445.1 1024.27 445.552 1024.46 446.004 1024.61 446.472 1024.7 446.956 1024.8 447.439 1024.84 447.923 1024.84 448.417L1024.84 466.719C1024.84 467.213 1024.8 467.696 1024.7 468.18 1024.61 468.663 1024.46 469.131 1024.27 469.584 1024.08 470.036 1023.86 470.468 1023.58 470.878 1023.31 471.289 1023 471.663 1022.65 472.012 1022.3 472.36 1021.93 472.672 1021.52 472.942 1021.11 473.218 1020.68 473.447 1020.22 473.634 1019.77 473.826 1019.3 473.967 1018.82 474.06 1018.34 474.159 1017.85 474.206 1017.36 474.206L984.414 474.206C983.92 474.206 983.437 474.159 982.953 474.06 982.47 473.967 982.002 473.826 981.549 473.634 981.092 473.447 980.666 473.218 980.255 472.942 979.844 472.672 979.47 472.36 979.122 472.012 978.774 471.663 978.461 471.289 978.191 470.878 977.915 470.468 977.686 470.036 977.499 469.584 977.307 469.131 977.167 468.663 977.073 468.18 976.975 467.696 976.926 467.213 976.926 466.719Z" fill="#F89B29"/><path d="M648.157 506.65 648.157 488.348C648.157 487.854 648.203 487.371 648.305 486.887 648.399 486.403 648.539 485.936 648.726 485.483 648.918 485.031 649.147 484.6 649.423 484.189 649.694 483.778 650.005 483.403 650.353 483.055 650.701 482.707 651.076 482.395 651.487 482.124 651.892 481.849 652.324 481.62 652.781 481.433 653.234 481.24 653.702 481.1 654.185 481.006 654.669 480.908 655.152 480.861 655.646 480.861L688.59 480.861C689.078 480.861 689.567 480.908 690.051 481.006 690.534 481.1 691.002 481.24 691.454 481.433 691.907 481.62 692.338 481.849 692.749 482.124 693.16 482.395 693.534 482.707 693.883 483.055 694.23 483.403 694.543 483.778 694.813 484.189 695.089 484.6 695.318 485.031 695.505 485.483 695.697 485.936 695.837 486.403 695.931 486.887 696.029 487.371 696.078 487.854 696.078 488.348L696.078 506.65C696.078 507.144 696.033 507.628 695.931 508.111 695.837 508.595 695.697 509.062 695.505 509.515 695.316 509.967 695.089 510.399 694.813 510.81 694.542 511.22 694.231 511.594 693.883 511.943 693.535 512.291 693.16 512.603 692.749 512.874 692.338 513.149 691.907 513.378 691.454 513.565 691.002 513.758 690.534 513.898 690.051 513.992 689.567 514.09 689.078 514.137 688.59 514.137L655.646 514.137C655.152 514.137 654.669 514.09 654.185 513.992 653.702 513.898 653.234 513.758 652.781 513.565 652.324 513.378 651.892 513.149 651.487 512.874 651.076 512.603 650.702 512.291 650.353 511.943 650.006 511.594 649.693 511.22 649.423 510.81 649.147 510.399 648.918 509.967 648.726 509.515 648.537 509.062 648.397 508.595 648.305 508.111 648.207 507.628 648.157 507.144 648.157 506.65Z" fill="#FF0F7B"/><path d="M702.73 506.65 702.73 488.348C702.73 487.854 702.776 487.371 702.878 486.887 702.972 486.403 703.111 485.936 703.304 485.483 703.493 485.031 703.72 484.6 703.995 484.189 704.267 483.778 704.578 483.403 704.926 483.055 705.273 482.707 705.649 482.395 706.06 482.124 706.465 481.849 706.897 481.62 707.354 481.433 707.807 481.24 708.274 481.1 708.758 481.006 709.242 480.908 709.725 480.861 710.219 480.861L743.162 480.861C743.651 480.861 744.14 480.908 744.624 481.006 745.107 481.1 745.575 481.24 746.027 481.433 746.48 481.62 746.911 481.849 747.322 482.124 747.733 482.395 748.107 482.707 748.456 483.055 748.803 483.403 749.116 483.778 749.386 484.189 749.662 484.6 749.89 485.031 750.078 485.483 750.266 485.936 750.41 486.403 750.504 486.887 750.602 487.371 750.651 487.854 750.651 488.348L750.651 506.65C750.651 507.144 750.606 507.628 750.504 508.111 750.41 508.595 750.266 509.062 750.078 509.515 749.889 509.967 749.662 510.399 749.386 510.81 749.115 511.22 748.804 511.594 748.456 511.943 748.108 512.291 747.733 512.603 747.322 512.874 746.911 513.149 746.48 513.378 746.027 513.565 745.575 513.758 745.107 513.898 744.624 513.992 744.14 514.09 743.651 514.137 743.162 514.137L710.219 514.137C709.725 514.137 709.242 514.09 708.758 513.992 708.274 513.898 707.807 513.758 707.354 513.565 706.897 513.378 706.465 513.149 706.06 512.874 705.649 512.603 705.275 512.291 704.926 511.943 704.579 511.594 704.266 511.22 703.995 510.81 703.72 510.399 703.491 509.967 703.304 509.515 703.111 509.062 702.972 508.595 702.878 508.111 702.779 507.628 702.73 507.144 702.73 506.65Z" fill="#FD266D"/><path d="M757.303 506.65 757.303 488.348C757.303 487.854 757.349 487.371 757.45 486.887 757.545 486.403 757.684 485.936 757.877 485.483 758.065 485.031 758.293 484.6 758.568 484.189 758.84 483.778 759.151 483.403 759.499 483.055 759.846 482.707 760.222 482.395 760.633 482.124 761.038 481.849 761.469 481.62 761.927 481.433 762.38 481.24 762.847 481.1 763.331 481.006 763.814 480.908 764.298 480.861 764.792 480.861L797.735 480.861C798.224 480.861 798.713 480.908 799.196 481.006 799.68 481.1 800.148 481.24 800.6 481.433 801.052 481.62 801.484 481.849 801.895 482.124 802.305 482.395 802.68 482.707 803.028 483.055 803.375 483.403 803.689 483.778 803.959 484.189 804.235 484.6 804.463 485.031 804.65 485.483 804.839 485.936 804.982 486.403 805.077 486.887 805.175 487.371 805.224 487.854 805.224 488.348L805.224 506.65C805.224 507.144 805.179 507.628 805.077 508.111 804.982 508.595 804.839 509.062 804.65 509.515 804.462 509.967 804.235 510.399 803.959 510.81 803.688 511.22 803.377 511.594 803.028 511.943 802.681 512.291 802.305 512.603 801.895 512.874 801.484 513.149 801.052 513.378 800.6 513.565 800.148 513.758 799.68 513.898 799.196 513.992 798.713 514.09 798.224 514.137 797.735 514.137L764.792 514.137C764.298 514.137 763.814 514.09 763.331 513.992 762.847 513.898 762.38 513.758 761.927 513.565 761.469 513.378 761.038 513.149 760.633 512.874 760.222 512.603 759.847 512.291 759.499 511.943 759.152 511.594 758.839 511.22 758.568 510.81 758.293 510.399 758.064 509.967 757.877 509.515 757.684 509.062 757.545 508.595 757.45 508.111 757.352 507.628 757.303 507.144 757.303 506.65Z" fill="#FC3D5F"/><path d="M811.876 506.65 811.876 488.348C811.876 487.854 811.921 487.371 812.023 486.887 812.118 486.403 812.257 485.936 812.444 485.483 812.637 485.031 812.865 484.6 813.141 484.189 813.413 483.778 813.723 483.403 814.072 483.055 814.419 482.707 814.795 482.395 815.205 482.124 815.616 481.849 816.048 481.62 816.5 481.433 816.952 481.24 817.42 481.1 817.904 481.006 818.387 480.908 818.871 480.861 819.365 480.861L853.639 480.861C854.133 480.861 854.617 480.908 855.1 481.006 855.584 481.1 856.052 481.24 856.504 481.433 856.956 481.62 857.388 481.849 857.799 482.124 858.21 482.395 858.584 482.707 858.932 483.055 859.28 483.403 859.593 483.778 859.863 484.189 860.138 484.6 860.367 485.031 860.554 485.483 860.743 485.936 860.886 486.403 860.981 486.887 861.079 487.371 861.128 487.854 861.128 488.348L861.128 506.65C861.128 507.144 861.083 507.628 860.981 508.111 860.886 508.595 860.743 509.062 860.554 509.515 860.366 509.967 860.138 510.399 859.863 510.81 859.591 511.22 859.281 511.594 858.932 511.943 858.585 512.291 858.21 512.603 857.799 512.874 857.388 513.149 856.956 513.378 856.504 513.565 856.052 513.758 855.584 513.898 855.1 513.992 854.617 514.09 854.133 514.137 853.639 514.137L819.365 514.137C818.871 514.137 818.387 514.09 817.904 513.992 817.42 513.898 816.952 513.758 816.5 513.565 816.048 513.378 815.616 513.149 815.205 512.874 814.795 512.603 814.42 512.291 814.072 511.943 813.725 511.594 813.411 511.22 813.141 510.81 812.866 510.399 812.637 509.967 812.444 509.515 812.256 509.062 812.116 508.595 812.023 508.111 811.925 507.628 811.876 507.144 811.876 506.65Z" fill="#FB5552"/><path d="M867.78 506.65 867.78 488.348C867.78 487.854 867.826 487.371 867.927 486.887 868.022 486.403 868.161 485.936 868.354 485.483 868.542 485.031 868.769 484.6 869.045 484.189 869.317 483.778 869.628 483.403 869.976 483.055 870.323 482.707 870.698 482.395 871.109 482.124 871.52 481.849 871.951 481.62 872.404 481.433 872.856 481.24 873.324 481.1 873.808 481.006 874.291 480.908 874.775 480.861 875.269 480.861L908.212 480.861C908.706 480.861 909.19 480.908 909.673 481.006 910.157 481.1 910.625 481.24 911.077 481.433 911.529 481.62 911.961 481.849 912.372 482.124 912.782 482.395 913.157 482.707 913.505 483.055 913.852 483.403 914.166 483.778 914.436 484.189 914.711 484.6 914.94 485.031 915.127 485.483 915.316 485.936 915.459 486.403 915.554 486.887 915.652 487.371 915.701 487.854 915.701 488.348L915.701 506.65C915.701 507.144 915.656 507.628 915.554 508.111 915.459 508.595 915.316 509.062 915.127 509.515 914.939 509.967 914.711 510.399 914.436 510.81 914.164 511.22 913.854 511.594 913.505 511.943 913.158 512.291 912.782 512.603 912.372 512.874 911.961 513.149 911.529 513.378 911.077 513.565 910.625 513.758 910.157 513.898 909.673 513.992 909.19 514.09 908.706 514.137 908.212 514.137L875.269 514.137C874.775 514.137 874.291 514.09 873.808 513.992 873.324 513.898 872.856 513.758 872.404 513.565 871.951 513.378 871.52 513.149 871.109 512.874 870.698 512.603 870.324 512.291 869.976 511.943 869.629 511.594 869.315 511.22 869.045 510.81 868.769 510.399 868.541 509.967 868.354 509.515 868.161 509.062 868.022 508.595 867.927 508.111 867.829 507.628 867.78 507.144 867.78 506.65Z" fill="#FA6C44"/><path d="M922.353 506.65 922.353 488.348C922.353 487.854 922.398 487.371 922.5 486.887 922.595 486.403 922.734 485.936 922.927 485.483 923.115 485.031 923.343 484.6 923.618 484.189 923.89 483.778 924.201 483.403 924.549 483.055 924.896 482.707 925.272 482.395 925.682 482.124 926.093 481.849 926.52 481.62 926.977 481.433 927.429 481.24 927.898 481.1 928.381 481.006 928.865 480.908 929.348 480.861 929.842 480.861L962.785 480.861C963.279 480.861 963.763 480.908 964.246 481.006 964.73 481.1 965.198 481.24 965.65 481.433 966.103 481.62 966.534 481.849 966.945 482.124 967.356 482.395 967.73 482.707 968.078 483.055 968.425 483.403 968.739 483.778 969.009 484.189 969.284 484.6 969.513 485.031 969.701 485.483 969.889 485.936 970.033 486.403 970.127 486.887 970.225 487.371 970.274 487.854 970.274 488.348L970.274 506.65C970.274 507.144 970.229 507.628 970.127 508.111 970.033 508.595 969.889 509.062 969.701 509.515 969.512 509.967 969.284 510.399 969.009 510.81 968.737 511.22 968.427 511.594 968.078 511.943 967.731 512.291 967.356 512.603 966.945 512.874 966.534 513.149 966.103 513.378 965.65 513.565 965.198 513.758 964.73 513.898 964.246 513.992 963.763 514.09 963.279 514.137 962.785 514.137L929.842 514.137C929.348 514.137 928.865 514.09 928.381 513.992 927.898 513.898 927.429 513.758 926.977 513.565 926.525 513.378 926.093 513.149 925.682 512.874 925.272 512.603 924.897 512.291 924.549 511.943 924.202 511.594 923.889 511.22 923.618 510.81 923.343 510.399 923.114 509.967 922.927 509.515 922.734 509.062 922.595 508.595 922.5 508.111 922.402 507.628 922.353 507.144 922.353 506.65Z" fill="#F98336"/><path d="M976.926 506.65 976.926 488.348C976.926 487.854 976.971 487.371 977.073 486.887 977.167 486.403 977.307 485.936 977.499 485.483 977.688 485.031 977.915 484.6 978.191 484.189 978.462 483.778 978.773 483.403 979.122 483.055 979.469 482.707 979.844 482.395 980.255 482.124 980.666 481.849 981.092 481.62 981.549 481.433 982.002 481.24 982.47 481.1 982.953 481.006 983.437 480.908 983.92 480.861 984.414 480.861L1017.36 480.861C1017.85 480.861 1018.34 480.908 1018.82 481.006 1019.3 481.1 1019.77 481.24 1020.22 481.433 1020.68 481.62 1021.11 481.849 1021.52 482.124 1021.93 482.395 1022.3 482.707 1022.65 483.055 1023 483.403 1023.31 483.778 1023.58 484.189 1023.86 484.6 1024.09 485.031 1024.27 485.483 1024.46 485.936 1024.61 486.403 1024.7 486.887 1024.8 487.371 1024.84 487.854 1024.84 488.348L1024.84 506.65C1024.84 507.144 1024.8 507.628 1024.7 508.111 1024.61 508.595 1024.46 509.062 1024.27 509.515 1024.08 509.967 1023.86 510.399 1023.58 510.81 1023.31 511.22 1023 511.594 1022.65 511.943 1022.3 512.291 1021.93 512.603 1021.52 512.874 1021.11 513.149 1020.68 513.378 1020.22 513.565 1019.77 513.758 1019.3 513.898 1018.82 513.992 1018.34 514.09 1017.85 514.137 1017.36 514.137L984.414 514.137C983.92 514.137 983.437 514.09 982.953 513.992 982.47 513.898 982.002 513.758 981.549 513.565 981.092 513.378 980.666 513.149 980.255 512.874 979.844 512.603 979.47 512.291 979.122 511.943 978.774 511.594 978.461 511.22 978.191 510.81 977.915 510.399 977.686 509.967 977.499 509.515 977.307 509.062 977.167 508.595 977.073 508.111 976.975 507.628 976.926 507.144 976.926 506.65Z" fill="#F89B29"/><path d="M648.157 546.582 648.157 528.28C648.157 527.785 648.203 527.302 648.305 526.818 648.399 526.335 648.539 525.867 648.726 525.415 648.918 524.962 649.147 524.531 649.423 524.12 649.694 523.709 650.005 523.335 650.353 522.986 650.701 522.638 651.076 522.326 651.487 522.056 651.892 521.78 652.324 521.552 652.781 521.364 653.234 521.172 653.702 521.032 654.185 520.938 654.669 520.839 655.152 520.792 655.646 520.792L688.59 520.792C689.078 520.792 689.567 520.839 690.051 520.938 690.534 521.032 691.002 521.172 691.454 521.364 691.907 521.552 692.338 521.78 692.749 522.056 693.16 522.326 693.534 522.638 693.883 522.986 694.23 523.335 694.543 523.709 694.813 524.12 695.089 524.531 695.318 524.962 695.505 525.415 695.697 525.867 695.837 526.335 695.931 526.818 696.029 527.302 696.078 527.785 696.078 528.28L696.078 546.582C696.078 547.075 696.033 547.559 695.931 548.042 695.837 548.526 695.697 548.994 695.505 549.446 695.316 549.898 695.089 550.33 694.813 550.741 694.542 551.152 694.231 551.526 693.883 551.874 693.535 552.223 693.16 552.535 692.749 552.805 692.338 553.081 691.907 553.309 691.454 553.496 691.002 553.689 690.534 553.829 690.051 553.923 689.567 554.022 689.078 554.068 688.59 554.068L655.646 554.068C655.152 554.068 654.669 554.022 654.185 553.923 653.702 553.829 653.234 553.689 652.781 553.496 652.324 553.309 651.892 553.081 651.487 552.805 651.076 552.535 650.702 552.223 650.353 551.874 650.006 551.526 649.693 551.152 649.423 550.741 649.147 550.33 648.918 549.898 648.726 549.446 648.537 548.994 648.397 548.526 648.305 548.042 648.207 547.559 648.157 547.075 648.157 546.582Z" fill="#FF0F7B"/><path d="M702.73 546.582 702.73 528.28C702.73 527.785 702.776 527.302 702.878 526.818 702.972 526.335 703.111 525.867 703.304 525.415 703.493 524.962 703.72 524.531 703.995 524.12 704.267 523.709 704.578 523.335 704.926 522.986 705.273 522.638 705.649 522.326 706.06 522.056 706.465 521.78 706.897 521.552 707.354 521.364 707.807 521.172 708.274 521.032 708.758 520.938 709.242 520.839 709.725 520.792 710.219 520.792L743.162 520.792C743.651 520.792 744.14 520.839 744.624 520.938 745.107 521.032 745.575 521.172 746.027 521.364 746.48 521.552 746.911 521.78 747.322 522.056 747.733 522.326 748.107 522.638 748.456 522.986 748.803 523.335 749.116 523.709 749.386 524.12 749.662 524.531 749.89 524.962 750.078 525.415 750.266 525.867 750.41 526.335 750.504 526.818 750.602 527.302 750.651 527.785 750.651 528.28L750.651 546.582C750.651 547.075 750.606 547.559 750.504 548.042 750.41 548.526 750.266 548.994 750.078 549.446 749.889 549.898 749.662 550.33 749.386 550.741 749.115 551.152 748.804 551.526 748.456 551.874 748.108 552.223 747.733 552.535 747.322 552.805 746.911 553.081 746.48 553.309 746.027 553.496 745.575 553.689 745.107 553.829 744.624 553.923 744.14 554.022 743.651 554.068 743.162 554.068L710.219 554.068C709.725 554.068 709.242 554.022 708.758 553.923 708.274 553.829 707.807 553.689 707.354 553.496 706.897 553.309 706.465 553.081 706.06 552.805 705.649 552.535 705.275 552.223 704.926 551.874 704.579 551.526 704.266 551.152 703.995 550.741 703.72 550.33 703.491 549.898 703.304 549.446 703.111 548.994 702.972 548.526 702.878 548.042 702.779 547.559 702.73 547.075 702.73 546.582Z" fill="#FD266D"/><path d="M757.303 546.582 757.303 528.28C757.303 527.785 757.349 527.302 757.45 526.818 757.545 526.335 757.684 525.867 757.877 525.415 758.065 524.962 758.293 524.531 758.568 524.12 758.84 523.709 759.151 523.335 759.499 522.986 759.846 522.638 760.222 522.326 760.633 522.056 761.038 521.78 761.469 521.552 761.927 521.364 762.38 521.172 762.847 521.032 763.331 520.938 763.814 520.839 764.298 520.792 764.792 520.792L797.735 520.792C798.224 520.792 798.713 520.839 799.196 520.938 799.68 521.032 800.148 521.172 800.6 521.364 801.052 521.552 801.484 521.78 801.895 522.056 802.305 522.326 802.68 522.638 803.028 522.986 803.375 523.335 803.689 523.709 803.959 524.12 804.235 524.531 804.463 524.962 804.65 525.415 804.839 525.867 804.982 526.335 805.077 526.818 805.175 527.302 805.224 527.785 805.224 528.28L805.224 546.582C805.224 547.075 805.179 547.559 805.077 548.042 804.982 548.526 804.839 548.994 804.65 549.446 804.462 549.898 804.235 550.33 803.959 550.741 803.688 551.152 803.377 551.526 803.028 551.874 802.681 552.223 802.305 552.535 801.895 552.805 801.484 553.081 801.052 553.309 800.6 553.496 800.148 553.689 799.68 553.829 799.196 553.923 798.713 554.022 798.224 554.068 797.735 554.068L764.792 554.068C764.298 554.068 763.814 554.022 763.331 553.923 762.847 553.829 762.38 553.689 761.927 553.496 761.469 553.309 761.038 553.081 760.633 552.805 760.222 552.535 759.847 552.223 759.499 551.874 759.152 551.526 758.839 551.152 758.568 550.741 758.293 550.33 758.064 549.898 757.877 549.446 757.684 548.994 757.545 548.526 757.45 548.042 757.352 547.559 757.303 547.075 757.303 546.582Z" fill="#FC3D5F"/><path d="M811.876 546.582 811.876 528.28C811.876 527.785 811.921 527.302 812.023 526.818 812.118 526.335 812.257 525.867 812.444 525.415 812.637 524.962 812.865 524.531 813.141 524.12 813.413 523.709 813.723 523.335 814.072 522.986 814.419 522.638 814.795 522.326 815.205 522.056 815.616 521.78 816.048 521.552 816.5 521.364 816.952 521.172 817.42 521.032 817.904 520.938 818.387 520.839 818.871 520.792 819.365 520.792L853.639 520.792C854.133 520.792 854.617 520.839 855.1 520.938 855.584 521.032 856.052 521.172 856.504 521.364 856.956 521.552 857.388 521.78 857.799 522.056 858.21 522.326 858.584 522.638 858.932 522.986 859.28 523.335 859.593 523.709 859.863 524.12 860.138 524.531 860.367 524.962 860.554 525.415 860.743 525.867 860.886 526.335 860.981 526.818 861.079 527.302 861.128 527.785 861.128 528.28L861.128 546.582C861.128 547.075 861.083 547.559 860.981 548.042 860.886 548.526 860.743 548.994 860.554 549.446 860.366 549.898 860.138 550.33 859.863 550.741 859.591 551.152 859.281 551.526 858.932 551.874 858.585 552.223 858.21 552.535 857.799 552.805 857.388 553.081 856.956 553.309 856.504 553.496 856.052 553.689 855.584 553.829 855.1 553.923 854.617 554.022 854.133 554.068 853.639 554.068L819.365 554.068C818.871 554.068 818.387 554.022 817.904 553.923 817.42 553.829 816.952 553.689 816.5 553.496 816.048 553.309 815.616 553.081 815.205 552.805 814.795 552.535 814.42 552.223 814.072 551.874 813.725 551.526 813.411 551.152 813.141 550.741 812.866 550.33 812.637 549.898 812.444 549.446 812.256 548.994 812.116 548.526 812.023 548.042 811.925 547.559 811.876 547.075 811.876 546.582Z" fill="#FB5552"/><path d="M922.353 546.582 922.353 528.28C922.353 527.785 922.398 527.302 922.5 526.818 922.595 526.335 922.734 525.867 922.927 525.415 923.115 524.962 923.343 524.531 923.618 524.12 923.89 523.709 924.201 523.335 924.549 522.986 924.896 522.638 925.272 522.326 925.682 522.056 926.093 521.78 926.52 521.552 926.977 521.364 927.429 521.172 927.898 521.032 928.381 520.938 928.865 520.839 929.348 520.792 929.842 520.792L962.785 520.792C963.279 520.792 963.763 520.839 964.246 520.938 964.73 521.032 965.198 521.172 965.65 521.364 966.103 521.552 966.534 521.78 966.945 522.056 967.356 522.326 967.73 522.638 968.078 522.986 968.425 523.335 968.739 523.709 969.009 524.12 969.284 524.531 969.513 524.962 969.701 525.415 969.889 525.867 970.033 526.335 970.127 526.818 970.225 527.302 970.274 527.785 970.274 528.28L970.274 546.582C970.274 547.075 970.229 547.559 970.127 548.042 970.033 548.526 969.889 548.994 969.701 549.446 969.512 549.898 969.284 550.33 969.009 550.741 968.737 551.152 968.427 551.526 968.078 551.874 967.731 552.223 967.356 552.535 966.945 552.805 966.534 553.081 966.103 553.309 965.65 553.496 965.198 553.689 964.73 553.829 964.246 553.923 963.763 554.022 963.279 554.068 962.785 554.068L929.842 554.068C929.348 554.068 928.865 554.022 928.381 553.923 927.898 553.829 927.429 553.689 926.977 553.496 926.525 553.309 926.093 553.081 925.682 552.805 925.272 552.535 924.897 552.223 924.549 551.874 924.202 551.526 923.889 551.152 923.618 550.741 923.343 550.33 923.114 549.898 922.927 549.446 922.734 548.994 922.595 548.526 922.5 548.042 922.402 547.559 922.353 547.075 922.353 546.582Z" fill="#F98336"/><path d="M976.926 546.582 976.926 528.28C976.926 527.785 976.971 527.302 977.073 526.818 977.167 526.335 977.307 525.867 977.499 525.415 977.688 524.962 977.915 524.531 978.191 524.12 978.462 523.709 978.773 523.335 979.122 522.986 979.469 522.638 979.844 522.326 980.255 522.056 980.666 521.78 981.092 521.552 981.549 521.364 982.002 521.172 982.47 521.032 982.953 520.938 983.437 520.839 983.92 520.792 984.414 520.792L1017.36 520.792C1017.85 520.792 1018.34 520.839 1018.82 520.938 1019.3 521.032 1019.77 521.172 1020.22 521.364 1020.68 521.552 1021.11 521.78 1021.52 522.056 1021.93 522.326 1022.3 522.638 1022.65 522.986 1023 523.335 1023.31 523.709 1023.58 524.12 1023.86 524.531 1024.09 524.962 1024.27 525.415 1024.46 525.867 1024.61 526.335 1024.7 526.818 1024.8 527.302 1024.84 527.785 1024.84 528.28L1024.84 546.582C1024.84 547.075 1024.8 547.559 1024.7 548.042 1024.61 548.526 1024.46 548.994 1024.27 549.446 1024.08 549.898 1023.86 550.33 1023.58 550.741 1023.31 551.152 1023 551.526 1022.65 551.874 1022.3 552.223 1021.93 552.535 1021.52 552.805 1021.11 553.081 1020.68 553.309 1020.22 553.496 1019.77 553.689 1019.3 553.829 1018.82 553.923 1018.34 554.022 1017.85 554.068 1017.36 554.068L984.414 554.068C983.92 554.068 983.437 554.022 982.953 553.923 982.47 553.829 982.002 553.689 981.549 553.496 981.092 553.309 980.666 553.081 980.255 552.805 979.844 552.535 979.47 552.223 979.122 551.874 978.774 551.526 978.461 551.152 978.191 550.741 977.915 550.33 977.686 549.898 977.499 549.446 977.307 548.994 977.167 548.526 977.073 548.042 976.975 547.559 976.926 547.075 976.926 546.582Z" fill="#F89B29"/><path d="M702.73 586.513 702.73 568.211C702.73 567.717 702.776 567.233 702.878 566.75 702.972 566.266 703.111 565.798 703.304 565.346 703.493 564.894 703.72 564.462 703.995 564.052 704.267 563.641 704.578 563.266 704.926 562.918 705.273 562.569 705.649 562.257 706.06 561.987 706.465 561.711 706.897 561.483 707.354 561.296 707.807 561.103 708.274 560.963 708.758 560.869 709.242 560.77 709.725 560.724 710.219 560.724L743.162 560.724C743.651 560.724 744.14 560.77 744.624 560.869 745.107 560.963 745.575 561.103 746.027 561.296 746.48 561.483 746.911 561.711 747.322 561.987 747.733 562.257 748.107 562.569 748.456 562.918 748.803 563.266 749.116 563.641 749.386 564.052 749.662 564.462 749.89 564.894 750.078 565.346 750.266 565.798 750.41 566.266 750.504 566.75 750.602 567.233 750.651 567.717 750.651 568.211L750.651 586.513C750.651 587.007 750.606 587.49 750.504 587.974 750.41 588.457 750.266 588.925 750.078 589.378 749.889 589.83 749.662 590.262 749.386 590.672 749.115 591.083 748.804 591.457 748.456 591.806 748.108 592.154 747.733 592.466 747.322 592.736 746.911 593.012 746.48 593.241 746.027 593.428 745.575 593.62 745.107 593.761 744.624 593.854 744.14 593.953 743.651 594 743.162 594L710.219 594C709.725 594 709.242 593.953 708.758 593.854 708.274 593.761 707.807 593.62 707.354 593.428 706.897 593.241 706.465 593.012 706.06 592.736 705.649 592.466 705.275 592.154 704.926 591.806 704.579 591.457 704.266 591.083 703.995 590.672 703.72 590.262 703.491 589.83 703.304 589.378 703.111 588.925 702.972 588.457 702.878 587.974 702.779 587.49 702.73 587.007 702.73 586.513Z" fill="#FD266D"/><path d="M757.303 586.513 757.303 568.211C757.303 567.717 757.349 567.233 757.45 566.75 757.545 566.266 757.684 565.798 757.877 565.346 758.065 564.894 758.293 564.462 758.568 564.052 758.84 563.641 759.151 563.266 759.499 562.918 759.846 562.569 760.222 562.257 760.633 561.987 761.038 561.711 761.469 561.483 761.927 561.296 762.38 561.103 762.847 560.963 763.331 560.869 763.814 560.77 764.298 560.724 764.792 560.724L797.735 560.724C798.224 560.724 798.713 560.77 799.196 560.869 799.68 560.963 800.148 561.103 800.6 561.296 801.052 561.483 801.484 561.711 801.895 561.987 802.305 562.257 802.68 562.569 803.028 562.918 803.375 563.266 803.689 563.641 803.959 564.052 804.235 564.462 804.463 564.894 804.65 565.346 804.839 565.798 804.982 566.266 805.077 566.75 805.175 567.233 805.224 567.717 805.224 568.211L805.224 586.513C805.224 587.007 805.179 587.49 805.077 587.974 804.982 588.457 804.839 588.925 804.65 589.378 804.462 589.83 804.235 590.262 803.959 590.672 803.688 591.083 803.377 591.457 803.028 591.806 802.681 592.154 802.305 592.466 801.895 592.736 801.484 593.012 801.052 593.241 800.6 593.428 800.148 593.62 799.68 593.761 799.196 593.854 798.713 593.953 798.224 594 797.735 594L764.792 594C764.298 594 763.814 593.953 763.331 593.854 762.847 593.761 762.38 593.62 761.927 593.428 761.469 593.241 761.038 593.012 760.633 592.736 760.222 592.466 759.847 592.154 759.499 591.806 759.152 591.457 758.839 591.083 758.568 590.672 758.293 590.262 758.064 589.83 757.877 589.378 757.684 588.925 757.545 588.457 757.45 587.974 757.352 587.49 757.303 587.007 757.303 586.513Z" fill="#FC3D5F"/><path d="M976.926 586.513 976.926 568.211C976.926 567.717 976.971 567.233 977.073 566.75 977.167 566.266 977.307 565.798 977.499 565.346 977.688 564.894 977.915 564.462 978.191 564.052 978.462 563.641 978.773 563.266 979.122 562.918 979.469 562.569 979.844 562.257 980.255 561.987 980.666 561.711 981.092 561.483 981.549 561.296 982.002 561.103 982.47 560.963 982.953 560.869 983.437 560.77 983.92 560.724 984.414 560.724L1017.36 560.724C1017.85 560.724 1018.34 560.77 1018.82 560.869 1019.3 560.963 1019.77 561.103 1020.22 561.296 1020.68 561.483 1021.11 561.711 1021.52 561.987 1021.93 562.257 1022.3 562.569 1022.65 562.918 1023 563.266 1023.31 563.641 1023.58 564.052 1023.86 564.462 1024.09 564.894 1024.27 565.346 1024.46 565.798 1024.61 566.266 1024.7 566.75 1024.8 567.233 1024.84 567.717 1024.84 568.211L1024.84 586.513C1024.84 587.007 1024.8 587.49 1024.7 587.974 1024.61 588.457 1024.46 588.925 1024.27 589.378 1024.08 589.83 1023.86 590.262 1023.58 590.672 1023.31 591.083 1023 591.457 1022.65 591.806 1022.3 592.154 1021.93 592.466 1021.52 592.736 1021.11 593.012 1020.68 593.241 1020.22 593.428 1019.77 593.62 1019.3 593.761 1018.82 593.854 1018.34 593.953 1017.85 594 1017.36 594L984.414 594C983.92 594 983.437 593.953 982.953 593.854 982.47 593.761 982.002 593.62 981.549 593.428 981.092 593.241 980.666 593.012 980.255 592.736 979.844 592.466 979.47 592.154 979.122 591.806 978.774 591.457 978.461 591.083 978.191 590.672 977.915 590.262 977.686 589.83 977.499 589.378 977.307 588.925 977.167 588.457 977.073 587.974 976.975 587.49 976.926 587.007 976.926 586.513Z" fill="#F89B29"/><path d="M660.431 423.626 660.431 400.686 660.452 400.686 672.702 418.052 670.851 417.636 683.059 400.686 683.121 400.686 683.121 423.626 678.795 423.626 678.795 410.482 679.045 412.728 671.599 423.335 671.537 423.335 663.863 412.728 664.611 410.648 664.611 423.626Z"/><path d="M719.929 401.581 724.276 401.581 724.276 419.425 734.633 419.425 734.633 423.626 719.929 423.626Z"/><path d="M788.064 409.895C789.342 409.895 790.354 410.255 791.112 410.973 791.898 411.692 792.31 412.64 792.35 413.818L792.35 423.641 788.184 423.641 788.184 415.555C788.144 414.897 788.037 414.407 787.851 414.088 787.678 413.749 787.319 413.559 786.8 413.519 785.828 413.519 785.056 413.998 784.497 414.956 783.965 415.895 783.685 417.003 783.685 418.281L783.685 423.641 779.492 423.641 779.492 415.555C779.452 414.897 779.333 414.407 779.133 414.088 778.933 413.749 778.574 413.559 778.028 413.519 777.096 413.519 776.351 413.998 775.819 414.956 775.273 415.895 775.007 416.983 775.007 418.221L775.007 423.641 770.814 423.641 770.814 410.554 774.621 410.554 774.913 412.62C775.978 410.804 777.549 409.895 779.652 409.895 780.703 409.895 781.569 410.115 782.247 410.554 782.953 410.973 783.432 411.602 783.685 412.441 784.244 411.662 784.91 411.043 785.668 410.584 786.44 410.125 787.239 409.895 788.064 409.895Z"/><path d="M829.073 416.908C829.073 415.577 829.385 414.387 830.009 413.331 830.633 412.265 831.511 411.428 832.65 410.815 833.799 410.206 835.109 409.9 836.581 409.9 838.078 409.9 839.373 410.206 840.47 410.815 841.578 411.428 842.425 412.265 843.007 413.331 843.6 414.387 843.902 415.577 843.902 416.908 843.902 418.255 843.6 419.461 843.007 420.527 842.425 421.598 841.578 422.441 840.47 423.065 839.373 423.673 838.057 423.98 836.518 423.98 835.089 423.98 833.804 423.699 832.671 423.148 831.548 422.597 830.664 421.791 830.03 420.735 829.39 419.669 829.073 418.396 829.073 416.908ZM833.295 416.95C833.295 417.631 833.43 418.25 833.711 418.801 833.986 419.342 834.361 419.773 834.834 420.091 835.317 420.413 835.858 420.569 836.456 420.569 837.122 420.569 837.688 420.413 838.161 420.091 838.645 419.773 839.014 419.342 839.264 418.801 839.524 418.25 839.659 417.631 839.659 416.95 839.659 416.243 839.524 415.629 839.264 415.099 839.014 414.558 838.645 414.132 838.161 413.81 837.688 413.492 837.122 413.331 836.456 413.331 835.858 413.331 835.317 413.492 834.834 413.81 834.361 414.132 833.986 414.558 833.711 415.099 833.43 415.629 833.295 416.243 833.295 416.95Z"/><path d="M891.171 410.544 891.566 414.142 891.483 413.602C891.858 412.811 892.367 412.146 893.022 411.605 893.688 411.054 894.343 410.628 894.998 410.336 895.648 410.035 896.142 409.879 896.475 409.879L896.267 414.08C895.279 413.955 894.442 414.116 893.75 414.558 893.053 414.99 892.513 415.567 892.128 416.285 891.754 417.007 891.566 417.751 891.566 418.51L891.566 423.626 887.407 423.626 887.407 410.544Z"/><path d="M947.312 423.98C946.532 423.98 945.773 423.839 945.025 423.564 944.276 423.273 943.652 422.857 943.153 422.316L943.278 421.089 943.278 429.907 939.118 429.907 939.118 410.232 942.695 410.232 943.298 412.791 942.966 411.896C943.641 411.314 944.401 410.836 945.233 410.461 946.075 410.076 947.052 409.879 948.165 409.879 949.371 409.879 950.453 410.165 951.409 410.732 952.376 411.304 953.136 412.12 953.676 413.186 954.228 414.257 954.508 415.536 954.508 417.033 954.508 418.52 954.196 419.779 953.572 420.818 952.959 421.858 952.117 422.649 951.035 423.189 949.954 423.714 948.711 423.98 947.312 423.98ZM946.48 420.694C947.156 420.694 947.78 420.548 948.352 420.257 948.919 419.955 949.376 419.524 949.725 418.967 950.068 418.416 950.245 417.792 950.245 417.096 950.245 416.363 950.089 415.723 949.787 415.182 949.48 414.631 949.059 414.2 948.519 413.893 947.988 413.576 947.406 413.414 946.772 413.414 946.215 413.414 945.721 413.492 945.295 413.643 944.863 413.799 944.484 414.018 944.151 414.309 943.829 414.59 943.548 414.948 943.298 415.39L943.298 418.593C943.465 419.009 943.693 419.378 943.985 419.695 944.286 420.018 944.655 420.267 945.087 420.444 945.513 420.61 945.981 420.694 946.48 420.694Z"/><path d="M994.476 423.626 994.476 400 998.573 400 998.573 413.165 998.553 412.666C999.01 411.849 999.655 411.184 1000.49 410.669 1001.33 410.16 1002.36 409.9 1003.56 409.9 1004.81 409.9 1005.84 410.269 1006.66 411.002 1007.5 411.74 1007.92 412.681 1007.95 413.83L1007.95 423.626 1003.75 423.626 1003.75 415.39C1003.74 414.808 1003.59 414.345 1003.29 413.997 1003 413.654 1002.51 413.477 1001.84 413.477 1001.2 413.477 1000.64 413.685 1000.15 414.101 999.681 414.517 999.312 415.089 999.052 415.806 998.787 416.529 998.657 417.361 998.657 418.302L998.657 423.626Z"/></g></svg>